<svg width="20" height="13" viewBox="0 0 20 13" fill="none" xmlns="http://www.w3.org/2000/svg">
  <path fill-rule="evenodd" clip-rule="evenodd" d="M0.5 1C0.367392 1 0.240215 0.947321 0.146447 0.853553C0.0526785 0.759785 0 0.632608 0 0.5C0 0.367392 0.0526785 0.240215 0.146447 0.146447C0.240215 0.0526785 0.367392 0 0.5 0H19.5C19.6326 0 19.7598 0.0526785 19.8536 0.146447C19.9473 0.240215 20 0.367392 20 0.5C20 0.632608 19.9473 0.759785 19.8536 0.853553C19.7598 0.947321 19.6326 1 19.5 1H0.5ZM0.5 7C0.367392 7 0.240215 6.94732 0.146447 6.85355C0.0526785 6.75979 0 6.63261 0 6.5C0 6.36739 0.0526785 6.24021 0.146447 6.14645C0.240215 6.05268 0.367392 6 0.5 6H19.5C19.6326 6 19.7598 6.05268 19.8536 6.14645C19.9473 6.24021 20 6.36739 20 6.5C20 6.63261 19.9473 6.75979 19.8536 6.85355C19.7598 6.94732 19.6326 7 19.5 7H0.5ZM0.5 13C0.367392 13 0.240215 12.9473 0.146447 12.8536C0.0526785 12.7598 0 12.6326 0 12.5C0 12.3674 0.0526785 12.2402 0.146447 12.1464C0.240215 12.0527 0.367392 12 0.5 12H19.5C19.6326 12 19.7598 12.0527 19.8536 12.1464C19.9473 12.2402 20 12.3674 20 12.5C20 12.6326 19.9473 12.7598 19.8536 12.8536C19.7598 12.9473 19.6326 13 19.5 13H0.5Z" fill="#333333" />
</svg>