<svg width="15" height="15" viewBox="0 0 15 15" fill="none" xmlns="http://www.w3.org/2000/svg">
  <path fill-rule="evenodd" clip-rule="evenodd" d="M1.88201 1.15099L8.00001 7.26999L14.117 1.15199C14.297 0.97299 14.576 0.95299 14.777 1.09199L14.849 1.15199C15.028 1.33199 15.048 1.60999 14.909 1.81199L14.849 1.88299L8.73001 7.99999L14.848 14.117C14.8961 14.1651 14.9342 14.2221 14.9602 14.2849C14.9862 14.3477 14.9996 14.415 14.9996 14.483C14.9996 14.551 14.9862 14.6183 14.9602 14.6811C14.9342 14.7439 14.8961 14.8009 14.848 14.849C14.7999 14.8971 14.7429 14.9352 14.6801 14.9612C14.6173 14.9872 14.55 15.0006 14.482 15.0006C14.414 15.0006 14.3467 14.9872 14.2839 14.9612C14.2211 14.9352 14.1641 14.8971 14.116 14.849L8.00001 8.72999L1.88201 14.848C1.70301 15.027 1.42401 15.047 1.22301 14.908L1.15101 14.848C1.06528 14.7624 1.01232 14.6495 1.00135 14.5289C0.990388 14.4082 1.02212 14.2876 1.09101 14.188L1.15101 14.116L7.27001 7.99999L1.15101 1.88199C1.09971 1.83477 1.05849 1.77766 1.02983 1.7141C1.00117 1.65054 0.985658 1.58183 0.984238 1.51212C0.982818 1.44241 0.995513 1.37313 1.02156 1.30845C1.04761 1.24377 1.08647 1.18503 1.13581 1.13576C1.18514 1.08649 1.24394 1.04771 1.30865 1.02175C1.37336 0.995796 1.44266 0.983195 1.51237 0.984711C1.58208 0.986227 1.65076 1.00183 1.71429 1.03057C1.77781 1.05932 1.83486 1.10062 1.88201 1.15199V1.15099Z" fill="#333333"/>
</svg>
